<mxfile host="65bd71144e">
    <diagram id="kYCZaTRnmj8xnxwlT4mZ" name="Page-1">
        <mxGraphModel dx="1218" dy="653" grid="1" gridSize="10" guides="1" tooltips="1" connect="1" arrows="1" fold="1" page="1" pageScale="1" pageWidth="827" pageHeight="1169" math="0" shadow="0">
            <root>
                <mxCell id="0"/>
                <mxCell id="1" parent="0"/>
                <mxCell id="2" value="" style="rounded=0;whiteSpace=wrap;html=1;" vertex="1" parent="1">
                    <mxGeometry x="80" y="180" width="660" height="30" as="geometry"/>
                </mxCell>
                <mxCell id="3" value="" style="shape=flexArrow;endArrow=classic;html=1;endWidth=12;endSize=5.457777777777777;" edge="1" parent="1">
                    <mxGeometry width="50" height="50" relative="1" as="geometry">
                        <mxPoint x="290" y="410" as="sourcePoint"/>
                        <mxPoint x="320" y="380" as="targetPoint"/>
                    </mxGeometry>
                </mxCell>
                <mxCell id="4" value="" style="shape=image;imageAspect=0;aspect=fixed;verticalLabelPosition=bottom;verticalAlign=top;image=data:image/png,iVBORw0KGgoAAAANSUhEUgAAAuoAAAPBCAYAAACoe4/nAAAACXBIWXMAAC4jAAAuIwF4pT92AAApIUlEQVR4nO3dQW4jW5Oe4dSPWoTHXkgD3oQnXo23403Y6EnvordSHlTrlqpESkkyM88XEc8DNGB40C2RceK8TPHe+/bz588NAADI8q/VPwAAAPCZUAcAgEBCHQAAAgl1AAAIJNQBACCQUAcAgEBCHQAAAgl1AAAIJNQBACCQUAcAgEBCHQAAAgl1AAAIJNQBACCQUAcAgEBCHQAAAgl1AAAIJNQBACCQUAcAgEBCHQAAAgl1AAAIJNQBACCQUAcAgEBCHQAAAgl1AAAIJNQBACCQUAcAgEBCHQAAAgl1AAAI9GP1D7DKv/2v//1z9c8AA72t/gGADP/nP//v6h+Bof7bf/y/1T/Cbp6oA1fyARkAdhLqAAAQSKgDAEAgoQ4AAIGEOgAABBLqAAAQSKgDAEAgoQ4AAIGEOgAABBLqAAAQSKgDAEAgoQ4AAIGEOgAABBLqAAAQSKgDAEAgoQ4AAIGEOgAABBLqAAAQSKgDAEAgoQ4AAIGEOgAABBLqAAAQSKgDAEAgoQ4AAIGEOgAABBLqAAAQSKgDAEAgoQ4AAIGEOgAABBLqAAAQSKgDAEAgoQ4AAIGEOgAABBLqAAAQSKgDAEAgoQ4AAIGEOgAABBLqAAAQSKgDAEAgoQ4AAIGEOgAABBLqAAAQSKgDAEAgoQ4AAIGEOgAABBLqAAAQSKgDAEAgoQ4AAIGEOgAABBLqAAAQSKgDAEAgoQ4AAIGEOgAABBLqAAAQSKgDAEAgoQ4AAIGEOgAABBLqAAAQSKgDAEAgoQ4AAIGEOgAABBLqAAAQSKgDAEAgoQ4AAIGEOgAABBLqAAAQSKgDAEAgoQ4AAIGEOgAABBLqAAAQSKgDAEAgoQ4AAIGEOgAABBLqAAAQSKgDAEAgoQ4AAIGEOgAABBLqAAAQSKgDAEAgoQ4AAIGEOgAABBLqAAAQSKgDAEAgoQ4AAIGEOgAABBLqAAAQSKgDAEAgoQ4AAIGEOgAABBLqAAAQSKgDAEAgoQ4AAIGEOgAABBLqAAAQSKgDAEAgoQ4AAIGEOgAABBLqAAAQSKgDAEAgoQ4AAIGEOgAABBLqAAAQSKgDAEAgoQ4AAIGEOgAABBLqAAAQSKgDAEAgoQ4AAIGEOgAABBLqAAAQSKgDAEAgoQ4AAIGEOgAABBLqAAAQSKgDAEAgoQ4AAIGEOgAABBLqAAAQSKgDAEAgoQ4AAIGEOgAABBLqAAAQSKgDAEAgoQ4AAIGEOgAABBLqAAAQSKgDAEAgoQ4AAIGEOgAABBLqAAAQSKgDAEAgoQ4AAIGEOgAABBLqAAAQSKgDAEAgoQ4AAIGEOgAABBLqAAAQSKgDAEAgoQ4AAIGEOgAABBLqAAAQSKgDAEAgoQ4AAIGEOgAABBLqAAAQSKgDAEAgoQ4AAIGEOqz1tvoHAAAyCXVYR6QDAHcJdVhDpAMAXxLq8wjE9bwHAMC3hPpMQnEdrz0AsItQn0swXs9rDgDsJtRnE47X8VoDAA8R6gjI83mNAYCHCXW2TUieyWsLADxFqPNOUB7PawoAPE2o85GwPI7XEgB4iVDnbwLzdV5DAOBlQp1bhObzvHYAwCGEOvcIzsd5zQCAwwh1viI89/NaAQCHEup8R4B+z2sEABxOqLOHEL3PawMAnEKos5cg/cxrAgCcRqjzCGH6m9cCADiVUOdRAtVrAABcQKjzjMmhOvl3BwAuJNR51sRgnfg7AwCLCHVeMSlcJ/2uAEAAoc6rJgTshN8RAAgj1DlC55Dt/LsBAMGEOkfpGLQdfycAoAihzpE6hW2n3wUAKEioc7QOgdvhdwAAihPqnKFy6Fb+2QGARoQ6Z6kYvBV/ZgCgKaHOmSqFb6WfFQAYQKhztgoBXOFnBACGEepcITmEk382AGAwoc5VEoM48WcCANi2TahzraQwTvpZAAA+EepcLSGQE34GAIAvCXVWWBnKIh0AKEGos8qKYBbpAEAZQp2VrgxnkQ4AlCLUWe2KgBbpAEA5Qp0EZ4a0SAcAShLqpDgjqEU6AFCWUCfJkWEt0gGA0oQ6aY4IbJEOAJQn1En0SmiLdACgBaFOqmeCW6QDAG0IdZI9Et4iHQBoRaiTbk+Ai3QAoJ0fq38A2OE9xH/e+f8HAGjHE3Uqebvz/wYAaMcTdaoR6ADACJ6oAwBAIKEOAACBhDoAAAQS6gAAEEioAwBAIKEOAACBhDoAAAQS6gAAEEioAwBAIKEOAACBhDoAAAQS6gAAEEioAwBAIKEOAACBhDoAAAQS6gAAEEioAwBAIKEOAACBhDoAAAQS6gAAEEioAwBAIKEOAACBhDoAAAQS6gAAEEioAwBAIKEOAACBhDoAAAQS6gAAEEioAwBAIKEOAACBhDoAAAQS6gAAEEioAwBAIKEOAACBhDoAAAQS6gAAEEioAwBAIKEOAACBhDoAAAQS6gAAEEioAwBAIKEOAACBhDoAAAQS6gAAEEioAwBAIKEOAACBhDoAAAQS6gAAEEioAwBAIKEOAACBhDoAAAQS6gAAEEioAwBAIKEOAACBhDoAAAQS6gAAEEioAwBAIKEOAACBhDoAAAQS6gAAEEioAwBAIKEOAACBhDoAAAQS6gAAEEioAwBAIKEOAACBhDoAAAQS6gAAEEioAwBAIKEOAACBhDoAAAQS6gAAEEioAwBAIKEOAACBhDoAAAQS6gAAEEioAwBAIKEOAACBhDoAAAQS6gAAEEioAwBAIKEOAACBhDoAAAQS6gAAEEioAwBAIKEOAACBhDoAAAQS6gAAEEioAwBAIKEOAACBhDoAAAQS6gAAEEioAwBAIKEOAACBhDoAAAQS6gAAEEioAwBAIKEOAACBhDoAAAQS6gAAEEioAwBAIKEOAACBhDoAAAQS6gAAEEioAwBAIKEOAACBhDoAAAQS6gAAEEioAwBAIKEOAACBhDoAAAQS6gAAEEioAwBAIKEOAACBhDoAAAQS6gAAEEioAwBAIKEOAACBhDoAAAQS6gAAEEioAwBAIKEOAACBhDoAAAQS6gAAEEioAwBAIKEOAACBhDoAAAQS6gAAEEioAwBAIKEOAACBhDoAAAQS6gAAEEioAwBAIKEOAACBhDoAAAQS6gAAEEioAwBAIKEOAACBhDoAAAQS6gAAEEioAwBAIKEOAACBhDoAAAQS6gAAEEioAwBAoB+rfwCA//LzxP/dbyf+76aXI+bQvO3wP//7/1j9IzDUv6/+AR4g1IGrnRnkR/3fFFp9VJi3j8we8A+hDvDZd6ElpjiL2QP+IdQBHncvpkRUnr/fkxVP2I9k9mAQoQ5wnFsRJaCy3Ho/qsf7tpk9aEmoA5xLQOUT70AkoQ5wvb8DSjzl6faVmXdmDwoR6gDriad8wh24nFAHyPMxnoRTpo/vS5do3zazB1GEOkA2TzzzTYj2bTN7cDmhDlCLJ57Zun5FZtvMHlxOqAPUJZzyvb8vnYJ928weXEKoA/QgnLJ1/XrMtpk9OI1QB+hHOGWbEO3mDg4g1AF6E07Zuka7D4twAKEOMINwyuf77MAf/rX6BwDgcj+3fjHYydvWN2jNHjzAE3WAuTzpzNb1azHb5itZsItQB2DbhFM6X4uBgXz1BYCPfDUhm6/FwCBCHYBbRFM2wQ4DCHUAviKasgl2aEyoA7CHaMom2KEhoQ7AI0RTNsEOjQh1AJ4hmrIJdmhAqAPwCtGUTbBDYUIdgCOIpmyCHQoS6gAcSTRlE+xQiFAH4AyiKVvXWN82s0cjQh2AMwmmXJ2frm+b2aMBoQ7A2TzhzNY52M0epQl1AK4imrJ1jfVtM3sUJdQBuJpgytX56fq2mT2KEeoArOAJZ7bOwW72KEOoA7CSaMrWNda3zdxRgFAHIIFoyuXpOiwi1AFIIZqydY31bTN7hBLqAKQRTLk6P13fNrNHGKEOQCJPOLN1j3WzRwShDkAywZSrc6xvm9kjgFAHIJ0nnLl8FQZOJNQBqEI05eoe62aPJYQ6AJUIplydY33bzB4LCHUAqvGEM9eEr8KYPS4j1AGoSjDl6hzr22b2uIhQB6AywZRLrMOLhDoA1fk6Qq4JX4WB0wh1ALoQTbm6x7rZ4xRCHYBOBFOuzrG+bWaPEwh1ALoRTLnEOjxAqAPQka8j5JoQ62aPQwh1ADoTTJm6/0Om22b2OIBQB6A7wZRLrMMXhDoAEwimXGId7hDqAEwhmHKJdbhBqAMwiX/QL5dYh78IdQAmEk2ZJsS62WM3oQ7AVIIpU/dY3zazx05CHYDJBFMmsQ6bUAcAwZRJrDOeUAcAwZTKfxiJ0YQ6APwimHKJdUb6sfoHALjhqEvZ5cejfm79o7Cqt633mTZ7fCLUgausuID2/t/sfPnzOMGUS6wzilAHjlbxkvnqZ+4cBdwnmHKJdcYQ6sArJlwmt37HzpHAb4Ipl1hnBKEO7OXS+O3v16JzMEwnmFjF7CHUgS+5JPYR7r29v5/OQ5buT9W3TayPJ9SBj1wIxxDuPYmmPGKd1oQ64AI438fXuHtUwNXEOm35Dx7BTG8f/odree1r6x6EVU04T2ZvIKEOcwjEPN6TmgRTpgnnyOwNI9ShNyFYh/epFsGUacIZMnuDCHXoSfTV5cNVHYIp04SzY/aGEOrQi8DrxfuZTzBlmnBuzN4AQh3q8wS2P+9vNsGUacKZMXvNCXWoS7zN40NZLsGUacJZMXuNCXWoR6ixbeYgkWBiFbPXlFCHOoQZt5iLLIIpz5TzYfYaEuqQT4ixhznJIZjyTDkbZq8ZoQ65hBfPMDcZBFOeKefC7DUi1CGP0OIIZmg9wZTHuaAUoQ45BDpHM1Pw2YQz4UNiE0Id1hNTnM2MrSOYWMXsNSDUAeYQ7GsIpjxTzoHZK06oA8wzJVKSCKY8U86B2StMqAPM5On69QRTnilnwOwVJdQBZpsSKikEE7CbUAfA03UmmzL7PiQWJNQBeDclWFYTTHmmzL7ZK0aoA/CRp+vXEEx5psy92StEqANwy5RoWUkwsYrZK0KoA3CPp+vnE0xZzDtRhDoA3xEvTDJl3n1ILECoA7DHlHhZQTDlmTLvZi+cUAdgL1+FOY9gYhWzF0yoA/AosX4OwZTFnLOcUAfgGSKGCabMuQ+JoYQ6AM+aEjFXEkysYvYCCXUAXuF768cTTFkmzbfZCyPUATjCpJi5gmDKYr5ZQqgD5Pi51Q40MQP1Vd5B7fxY/QMANDX1snvb5v7uR/u5+fCTZNJsm70QQh3gNUdf3B0ux0lBczbBlGXSbJu9AEIdYL+zL+hOl+L77zIlagAO5zvqALf9vPE/Z+oU6R91/b2u5MNOlkkzbfYWE+oAv1wZ5X/rfvF3//2uIJiyTJpps7eQUAcmWxXmH0258Kf8nmcSTDCMUAemSYjzd9PiddrvS2+T5jlhX44k1IEJkuL83aRL/qOpv/dRkmaYWfNs9hYQ6kBnaXG+bb8u9kmX+y3Tf/9Xpc00cBKhDnST+PT8nUD9zWtBF5NmOXGvtibUgS5S4/zdpMt8L6/J85Jnnd7M3oWEOlBdeqBvmyD9iteGDswxpxDqQEXJX2/hcSLnOeY/y6Q5NnsXEepAJRXjfNLl/Qqv03OqnQf6MHsXEOpABRUDfdvE56O8XlRnhjmUUAfSVQz0bXNhP8vr9riqZ4T6zN7JhDqQqupT9G0Tm6/y+j2u6lnpyPxyGKEOpKkc6Nvmkj6K1xFqqLyv4wl1IEX1QN82ccla1c9PJ9N2gdk7iVAHEnRY8tMu5it4TanM/PIyoQ6s1OEp+ra5kM/ktX1Mh/NETWbvBEIdWKXLUheS5/MaP6bL2erA7PISoQ5crctTdK4leCCf3X4woQ5cqdsSF4/X8nrv1+2sVTZtbs3egYQ6cJVuy3va5ZvC6w6MIdSBs3X8qotYpIJu566yaTvD7B1EqANn6risp124ibwHwAhCHTiLSOdM3ot9Op7DqqbNrNk7gFAHjtbxqy5kmhY+z3IeoSihDhypcxCIQuBV0/ZI5zvhEkIdOErnhTztcq3Ee7NP5/MJbQl14AidI0AI5vMeUcm0ee18P5xOqAOvsoRJMC1+nuGssorZe5JQB17RffmKv1q8X1RhVtlFqAPPEulQT/dzSy6z9wShDjyj+8IV6XV576jCrPItoQ48qnukU58A+pozzCpm70FCHXjEhCUr8oCr2Dd8SagDe4l0KvFefm3CeSaT2XuAUAf2sFipSKxTgTnlLqEOfGdKpLssmWbK2SaP2dtJqANfmbJMRXpf3lsqMKfcJNSBe6ZEOv2JoPucc1YxezsIdeCWSQtUxAEQSagDfxPpdOS9vm/SmU9mRvlEqAMfubDpTAhBFnfON4Q6MJVog98EUwZ7iT8IdeDdpIvaZTiX9x6yTLp7HibUgW2zKJlFrN9mD2Qwn/xDqAPTLmeXIECWaffQbkIdZrMcmcoHNiCeUAcmEWfwNR/eM0zcVWbvBqEOc01bihMvPr5mJoBoQh1mmhbpcI9Y/8x+yDBxNs3eX4Q6MMHECw+A4oQ6zOOJBfzJB7nP7AkIINRhlomXrwgDqpq4vybeU3cJdZjD8oP7JgYREE6oA52JL3ieD/cZJu4xs/dfhDrMYOnB9yYGERBMqANdiS54nQ/5sJBQh/4mXrQinWeZHRJNnMuJd9cnQh16s+gAoCihDnQz8ckTxzJDf/KBn1XGz55Qh77GLziARnyAHEioA524yDiKWfqTD/6wgFCHnlyqAP1M/AA5+j4T6tDP1KU28QLjXGYKWEqoAwB7TH0IAMsIdehl6kXqySdnMVukmTiTU+82oQ4AAImEOvQx9okDnGziE8x77BlWGTl7Qh2oTkQB09h7Qwh16GHkkwa4kDACLifUgcrEE1zPgwFWGTd7Qh3qG7e4YBEfDEliHgcQ6kBVLikAWhPqUJun6XAtHxB/sXtYZdTsCXWgIrEEYBe2J9ShrlFPFQBgGqEOAI/xFPMXDwtYZczsCXWoacySukEkATCCUAeAx/nASAqz2JhQBypxIUGWyX/dY60RsyfUoZ4RywkAphPqAPAcf+EhhVlsSqhDLZOfpruIINPkvQSnEuoA8DwfIGGd9h8ShTpQgRgCYByhDnW0f3IAlGU/reeBRkNCHQBeI5BgndYfEoU61NB6EX1DBAEwklAHAOjBg41mhDoAvE4gzf7LH5xCqEO+yZef+AHgO23vSaEOAACBhDoAHMNfgEhgDhsR6pCt7Z/zdnDZQD2TdxZrtZw9oQ4AAIGEOgAcx1+CgMMIdcjV8s94O4kdqGvy7oJDCXUAgF6mPuxo9yFRqAPAsaZGEnAwoQ6Z2j0VeIDIAYBNqAMAQCShDgDHm/6Xocl/FUwxdQZbzZ5QBwCAQEId8rR6GvCgqU+AAOAToQ4AAIGEOgCcY/pfiCb/dTDF9BksT6hDlskXmwsFgCO0uUuFOgAABBLqAHAefykCnibUAQAgkFCHHG2+U/cETx2hp8l7LYX9WphQBwCgmxYfEoU6AJzLE03gKUIdAAACCXXI0OJPdE/ytBEAbhDqAMCZJj+IgJcIdQCA3qb+5bL8h0ShDgDnmxpKwAuEOrCSeAGAO4Q6rFf+T3MAwPGEOgBwNg8k4AlCHQCu4atewEOEOgBAf1M/KJb+a45QB1aZemkAwC5CHQAAAgl1WKv0n+QAgPMIdQC4jq98AbsJdQDgCv6CCA8S6sAKnioCXG/q7i37IVGoAwBAIKEOAACBhDqsU/ZPcQDA+YQ6AFxr6veEgQcJdQAACCTUAYCr+MofPECoA1fzZ38A2EGoAwDMMfVhScm/5gh1AAAIJNRhjZKf7AGA6wh1ALje1K8fAA8Q6gAAEEioAwBAIKEOXMmf+wFgJ6EOAFzJP0wPOwl1AAAIJNQBACCQUAcAmGXqPy9U7mtXQh0A1pgaS8BOQh2uV+4TPQBwPaEOAACBhDoAAAQS6sBVfB8XAB4g1AEAIJBQBwCAQEIdAAACCXUAAAgk1AEAIJBQBwCu5j/8BjsIdQAACCTUAWAd/30B4C6hDgAAgYQ6AABTlPrnI4Q6AMA8vnZVgFAHAIBAQh0AAAIJdQAACCTU4Vql/iEWAGAdoQ4AAIGEOgAABBLqAAAQSKgDV/Dv6wWABwl1AAAIJNQBACCQUAcAgEBCHQAAAgl1AAAIJNQBACCQUAcAgEBCHQAAAgl1AAAIJNSBK/xc/QMAQDVCHQAAAgl1uNbb6h8AAKhBqAMAQCChDgAAgYQ6AAAEEuoAABBIqAMAQCChDgAwj/++RQFCHQCAKUr9a5KFOgCs46kmcJdQBwCAQEIdAAACCXUA4GqlvicMqwh1AAAIJNQBACCQUAcAgEBCfR7/KjAAgAKEOlzPP0QFAHxrcqiLJbiWv+YAwAMmhzoAAMQS6gAAEEioAwBAIKEOAGv45zaALwl1AIBZpn5ILPcvEhHqAAAQSKgDAFcq91QTVhHqM039k1cSFxUA8CWhDlzJh0QA2EmoAwBAoOmh7usHAABEmh7qALCCr4EB3xLqAAAQSKjDOr56BcDV/DWnEKEOAEB3JR+OCfW5fKJmFbMHADsIdQDgKiWfasIqQh0AAAIJdZ/uAbiWr38Buwh1WMsHRQDgJqEOAACBhPps/vzKKmYP4HpTd2/Zv14LdQAACCTUAeA6U59oblvhp5qwilCH9VxeAMAnQv0XoQQAQBShDgAAgYQ6k78vyVpmDwC+INQhg69fQX8+nLLS1Pkrfb8KdQDgbKVjCVYR6gAAEEio/+bTPlxv6p9iAeBbQp1tE0spfFgEAP4h1AHgfB6IAA8T6gAAvU39oFj+L9VCHQA4U/lYglWE+p8sE1abOINTn/QAwJeEOu/EEsA57FfgKUIdAAACCXUAgL6m/kWnxVdJhTrkabFcHjT1IoHuJu4zOIxQ/2zyUhFLAMeyV4GnCXUAAAgk1CHT5L/sAACbUAdy+IoAwLGm7tU2D7uEOn+beqgBjjZ9n7aJJVhFqN9muZDAHALAYEIdSDL9CSQA/EOoc4tYAgAqavXXaKEO2VotHBhk+gMPu2u96TPYglC/z5IBAGAZoQ6k8RQIADahzn1iKYe/7kAt9ies0e6+FOoAwJHaxVJBPiw2IdS/ZtmQYtosumQAGE+o8xWxBPAYexM4jFAHAKC6ln95FupQR8sl9AVPJqGeaXsqkd3ZiFD/3vSl48AD7GNfAocS6lDL9A+OADCGUAeSeUIJwHfaPsQS6uwhlgC+Zk82jqVCzGEzQn0fy4ck5hEABhDqQDpPiAAYSaizl1jK4qk65LAf7STWaT17Qn2/1oMA4YQQwNfsyYaEOtTlwyOsJ46A0wh1HuFCAgBStH9gJdShtvZL6gMfFCHTpD0ElxLqj7GMxBLAO/uQFGaxKaEO9fkACcA0I+4+oQ5U4qkRZBkRS7CKUH+cpSSWEplLuJY9SAqz2JhQB6pxKQHMNubhlFCHPsYsLljMh8Vf7Bw4mVB/juXkomIt8wdgF7Yn1KEXHyLhXMII1hp1zwl1XuHCAphpVCzBKkL9eZYUqabMpg+KwGR24ABCnVdZFMAU9h2sNeVB1D+EOvQ0ZZkJJ7jelP0Cywn111hWADP4UAhcTqhzBBdYpikfJM0fMM3EvTflTvuDUIfeRi42ONjEKLrHToELCfXXWVq/uMhYyfwB0I5Qh/58mITn+RBImokzOfYeE+rHGDtAf5m4PMhh/uBc7jq4mFCHGVyw8Dgf/khjJocR6hzNEsk1IdbNH5xjwv4g0+jZE+rHGT1IAM340AcsJ9Q5gwsu14QPlOYP6GjibptwZ31JqMM84xcffGNiEH3FzoBFhPqxLLPfXHSsZP4AKE+ow0w+VMJtPuT9ya7IMHEuzd4m1M9gsH6buFgq6T6r5g+A0oQ6APziwx2JJs5l9wdJuwl1zjZxwVTSfRmaP3he9/0A8YT6OSw3KjGv4EMdEEiocwUXICuZP3icD/AZJu4vs/eBUD+PQfvTxGVTiXllMvsJiCTUgXedY12IcY/ZgByd76GnCPVzGbg/uRDzdZ5Z8wf7dN4DldhZCHUAxhJCQDShztVcjPk6P00zf/C1zue/kom7yuzdINTPZ/CoyNzS3cQQAooR6qzggqyha6ybP8zAbV3PfDUT59Ps3SHUr2EAP5u4iCrqOrvmD4B4Qh34TtdYZyYf0m5zzlnF7H1BqF/HIH7mwmQl8weksZf4g1AH9uj6QdOlOIv3G7J0vVsOI9SvZSA/c3HWYX6pzK65z9nOYEb5RKiTwHKqo+OFbv4ArtfxPjmcUL+ewaQ6M0w1Pozd5zxnMKPcJNRJYUnV0u1yN399eW8hT7c75DRCfQ0DepsLtZZuc2z+mKbbGa7K7uEuoQ68ottF78LsxfsJebrdG6cS6usY1NtcrPWYZRLZJV9zbqEAoU4iF2w9nS5981ef95Aqps1qp7viEkJ9LQN737Tl1UGneTZ/dNbprEJrQh04kgBgNR+yqGLarLofniDU1zO4901bYl10mWnzV4/37HtdzieMINRJ5+KtqUsMmD/gDNN2S5c74XJCPYMBpqMucz3tQq3K+/S9LmcSxhDqVOACruttEwecz46gkmnz6g54gVDPYZC/Nm2xdVN9vs1fLu/NPtXPIIwk1KnEhVxb9VAwf1RV/ex1Mm2PmL0XCfUsBpruqs/4tEs2nfcDaE2oU42Lub7qsU4Gu2Af5y3HtJk1ewcQ6nkM9vemLbuOKv9DpuZvPe8BMIJQpyoXdQ9inUd57ferer46mja3Zu8gQj2TAd9n2uLrquq8m7/rec0hX9WdHkmo5zLo+7i4e6j6VRjzR6qK56kre4KnCXUgScW4cAlfw+u8X8Vz1NW0uTV7BxPq2Qz8PtMWYXdVn65zHmccGEmo04WLvJ9KsW7+zuO1fUylc9PdtNk1eycQ6vkM/n7TluIElZ6um7/jeU2hhip7uhyhXoMDsJ+LvacqZ8D8Hcdr+bgq52QC88shhDodWZA9VXm6bv5e5zV8XIWzQU9m70RCvQ4H4TEu+r4qBLv5e57XjurMMIcR6nRmWfaWHuzmj6sknwN6M3snE+q1OBCPE0v9JZ8L8/cYrxfVTZrh5N3bhlCvx8F43KTFOVXy03Xzt4/X6Tmpcz+RGeZwQh3oJDXYXeBf8/o8J3HWmcHsXUSo1+SAPE4IzJIY7GbwNq8LHUya47Td2ppQr8tBedykRcovb1tWtJvBP3k9npcy08CJhDrTCIO5UoLdDP7idXhewhzz26RZNnsXE+q1OTDPmbRU+Swh2KfP4PTfnz7MMqcS6vWtDo6qfm4W7HSrvxYzdf6m/t5HsfNZxewtINSZTjSwbeuifdL8+XD8OqGUZdI8m71FhHoPDtBrJi1bvnd1tE+Yvwm/I7NMmmmNsZBQ78NBes2kpct+b9s14d55/jr/bley42EgoQ6/CQq+c2a4d5y/jr/TCiI9y6S5NnuLCfVeHKjXTVrAvO7ocO80f51+F5hIUwT4sfoH4HBvmwvyVT83C4rnfDU3e89lh/mzg45TfRa6MdtcSqjDbR1iiSxT5knIHGfKzFQxabbNXghffenJATuGf50cPMZ5OY49zipmL4hQ78tBO474gK/5UEt35pslhHpvYv04ljTc5mwcz+7OMmnGzV4YoQ77TVrWsIczcTyhlGXSjJu9QEK9PwfvWJOWNnzFWTiefc0qZi+UUJ/BATyW7+MymflnCnPOckJ9DrF+PEucacz8eezoLJNm3ewFE+rwmknLnNnM+nmEEquYvXBCfRYH8hy+CkBn5vtc9nKeKfNu9goQ6vM4mOeZstyZw0wzzZSZ1wJFCPWZHNDzePpIB+b4GnZxFjNPHKE+lwviXBY+VZnda9jBrGL2Cvmx+geAxt6Dx1KkAoF+HTshz5T5N3vFeKI+mwN7jSkXAHWZ0evYu3mmzL/ZK0io4+Bew3d+SWQumW7K/LvrixLqbJsDfKUplwL5zOL17FrgIUKddy6Q63iKyUrmbw07Ns+Uc2D2ChPqfOQwX0swcSXzto7dmmfKWTB7xQl1WE9AcTbztY5QyjPlPJi9BoQ6f3Ow15lyeXAdHwLXsk/zTDkPZq8Joc4tDvg6woojmKP17FFWMXuNCHXucdDXElo8w9zAfRPOhru7GaHOVxz49YQXe5iTLHZnngnnw9w1JNT5joOfQYhxi7nIY2fmcUYoS6izh4snhzBj28xBKrsyz5RzYvaa+rH6B6CMt23Owqvg43thQc/hDOZyDvNMOS9mrzGhziPEeqb398Sy7smZy+fssYrZa85XX3iUpZDL1yF68X7WYCdmmnB2zN4AnqhDP74WU9eEuOjE+co04RyZvSGEOs/wFZg6RHsNzlM9zlOmCWfJ7A0i1HmWWK9HtGdxfupyfjJNOFNmbxihzivEel2ifQ3npT7nJdOEs2X2BhLqvEqs1yfaz+V89OF8ZJpwxszeUEKdI4j1Pv5+H10Oj3MWenIWMk04b2ZvMKHOUcR6T8L9e+a+P3OfacLZM3vDCXWOJNb7mx7u5nueaTNexYSzaPYQ6hxOrM9y773ucMGYYzrMcUcTzqbZY9s2oc45xDpfvf9JF5A55Z6kOeW3CWfW7PEPoc5Z3hfNhKXKY8wE6YRSpgm7w+zxh3+t/gFoz9IBKrGzMol0RhLqXMHyASqwqzKJdMYS6lzFEgKS2VGZRDqjCXWuZBkBieymTCKd8YQ6V7OUgCR2Uqbukf62mT12EOqsYDkBqwmlXBMiHXYR6qxiUQGr2D+5RDp8INRZycICrmbv5BLp8Behzmr+/Axcxa7JJdLhBqFOCksMOJMdk+nnJtLhLqFOEssMOIPdkmlCoJs9XiLUSWOpAUcRSrkmRDq8TKiTyIIDXmWP5BLpsJNQJ5UnYcCz7I5cIh0eINRJZ+kBj7AzcnWOdA+XOMWP1T8A7PC29V7wwOtEUq7u+9vscRpP1KnC0wrgHrshl0iHFwh1qrEUgY/shFwiHV7kqy9U5KswgEjK1X0/mz0u44k6VfkqDMzl7OcS6XAgoU51libM4szn6hzpHg6xhK++0IGvwkB/IilX9/1r9ljGE3W68LQD+nK2c4l0OJEn6nTj6Tr0IZKydd61Zo8IQp2O3hds50sEuhNKubrvVrNHDKFOZ56uQz0iKVvnnWr2iCPU6c7TdahDKOXqvkPNHpGEOlN4ug65RFK2zrvT7BFNqDOJp+uQRyjl6rwrzR0lCHUmEuywnlDK1nk/mj3KEOpM5uswcD2RlK3zTjR7lCPUmc7TdbiOUMrVfQeaPUoS6vCLYIfziKRsnfee2aM0oQ5/8nUYOI5IytZ515k9WhDq8Jmn6/A6oZSr824zd7Qi1OE+wQ6PE0q5Ou8yc0dLQh2+J9jhe0IpW+f9ZfZoS6jDfoIdPhNJ2TrvK7NHe0IdHifYQSSl67yfzB5jCHV4nmBnIpGUrfM+MnuMI9ThdYKdCURSts77x+wxllCH4wh2OhJJ2TrvG7PHeEIdjifY6UAkZeu6X8wdfCDU4TyCnWpEUrbOu8TswQ1CHc738QLqfNFSl0jK1nlvmD34glCHa3nKThKRlK3rnjB3sJNQhzU8ZWcVkZSt8z4we/AgoQ7recrO2QRSvq7n3+zBC4Q65PCUnaOJpGydz7nZgwMIdcgk2nmWQMrX9UybPTiYUId8op3vCKR8Xc+u2YMTCXWoRbTzTiDl63pGzR5cRKhDXaJ9HoGUr+tZNHuwgFCHHkR7XwIpW9fzZu4ggFCHfv6+YLuGRFcCKV/XM2X2IIxQh/48bc8mjvJ1PTdmD8IJdZjl1sXcNUJSiaN8Hc+EuYOChDrgqzLnEUf5us672YMGhDrwt3sXfNegOYowytdxhs0dNCbUgb0EvCiqqMt8mj0YSKgDr9oTEFViSQz187bVmD+zB3wi1IErvBohe0NL7HDLK3OxZ/bMHXCKt58/KzxoAACAWf61+gcAAAA+E+oAABBIqAMAQCChDgAAgYQ6AAAEEuoAABBIqAMAQCChDgAAgYQ6AAAEEuoAABBIqAMAQCChDgAAgYQ6AAAEEuoAABBIqAMAQCChDgAAgYQ6AAAEEuoAABBIqAMAQCChDgAAgYQ6AAAEEuoAABBIqAMAQCChDgAAgf4/T7Eob2xP7OUAAAAASUVORK5CYII=;base64,iVBORw0KGgoAAAANSUhEUgAAAuoAAAPBCAYAAACoe4/nAAAACXBIWXMAAC4jAAAuIwF4pT92AAApJ0lEQVR4nO3dQW4jW3Om4dTfBXgLnvVKPOqN96zX4X3YqB6UdUtVIqUkmZnni4jnAQwYnlii4sR5meS99+3nz58bAACQ5V+rfwAAAOAzoQ4AAIGEOgAABBLqAAAQSKgDAEAgoQ4AAIGEOgAABBLqAAAQSKgDAEAgoQ4AAIGEOgAABBLqAAAQSKgDAEAgoQ4AAIGEOgAABBLqAAAQSKgDAEAgoQ4AAIGEOgAABBLqAAAQSKgDAEAgoQ4AAIGEOgAABBLqAAAQSKgDAEAgoQ4AAIGEOgAABBLqAAAQ6MfqH2CV//yv//65+meAgd5W/wBAhn/7j/+z+kdgqH//f/939Y+wmyfqwJW8QQaAnYQ6AAAEEuoAABBIqAMAQCChDgAAgYQ6AAAEEuoAABBIqAMAQCChDgAAgYQ6AAAEEuoAABBIqAMAQCChDgAAgYQ6AAAEEuoAABBIqAMAQCChDgAAgYQ6AAAEEuoAABBIqAMAQCChDgAAgYQ6AAAEEuoAABBIqAMAQCChDgAAgYQ6AAAEEuoAABBIqAMAQCChDgAAgYQ6AAAEEuoAABBIqAMAQCChDgAAgYQ6AAAEEuoAABBIqAMAQCChDgAAgYQ6AAAEEuoAABBIqAMAQCChDgAAgYQ6AAAEEuoAABBIqAMAQCChDgAAgYQ6AAAEEuoAABBIqAMAQCChDgAAgYQ6AAAEEuoAABBIqAMAQCChDgAAgYQ6AAAEEuoAABBIqAMAQCChDgAAgYQ6AAAEEuoAABBIqAMAQCChDgAAgYQ6AAAEEuoAABBIqAMAQCChDgAAgYQ6AAAEEuoAABBIqAMAQCChDgAAgYQ6AAAEEuoAABBIqAMAQCChDgAAgYQ6AAAEEuoAABBIqAMAQCChDgAAgYQ6AAAEEuoAABBIqAMAQCChDgAAgYQ6AAAEEuoAABBIqAMAQCChDgAAgYQ6AAAEEuoAABBIqAMAQCChDgAAgYQ6AAAEEuoAABBIqAMAQCChDgAAgYQ6AAAEEuoAABBIqAMAQCChDgAAgYQ6AAAEEuoAABBIqAMAQCChDgAAgYQ6AAAEEuoAABBIqAMAQCChDgAAgYQ6AAAEEuoAABBIqAMAQCChDgAAgYQ6AAAEEuoAABBIqAMAQCChDgAAgYQ6AAAEEuoAABBIqAMAQCChDgAAgYQ6AAAEEuoAABBIqAMAQCChDgAAgYQ6AAAEEuoAABBIqAMAQCChDgAAgYQ6AAAEEuoAABBIqAMAQCChDgAAgYQ6AAAEEuoAABBIqAMAQCChDgAAgYQ6AAAEEuoAABBIqAMAQCChDgAAgYQ6AAAEEuoAABBIqAMAQCChDgAAgYQ6AAAEEuoAABBIqAMAQCChDgAAgYQ6AAAEEuoAABBIqAMAQCChDmu9rf4BAIBMQh3WEekAwF1CHdYQ6QDAl4T6PAJxPX8DAOBbQn0mobiO1x4A2EWozyUYr+c1BwB2E+qzCcfreK0BgIcIdQTk+bzGAMDDhDrbJiTP5LUFAJ4i1HknKI/nNQUAnibU+UhYHsdrCQC8RKjzN4H5Oq8hAPAyoc4tQvN5XjsA4BBCnXsE5+O8ZgDAYYQ6XxGe+3mtAIBDCXW+I0C/5zUCAA4n1NlDiN7ntQEATiHU2UuQfuY1AQBOI9R5hDD9zWsBAJxKqPMogeo1AAAuINR5xuRQnfy7AwAXEuo8a2KwTvydAYBFhDqvmBSuk35XACCAUOdVEwJ2wu8IAIQR6hyhc8h2/t0AgGBCnaN0DNqOvxMAUIRQ50idwrbT7wIAFCTUOVqHwO3wOwAAxQl1zlA5dCv/7ABAI0Kds1QM3oo/MwDQlFDnTJXCt9LPCgAMINQ5W4UArvAzAgDDCHWukBzCyT8bADCYUOcqiUGc+DMBAGzbJtS5VlIYJ/0sAACfCHWulhDICT8DAMCXhDorrAxlkQ4AlCDUWWVFMIt0AKAMoc5KV4azSAcAShHqrHZFQIt0AKAcoU6CM0NapAMAJQl1UpwR1CIdAChLqJPkyLAW6QBAaUKdNEcEtkgHAMoT6iR6JbRFOgDQglAn1TPBLdIBgDaEOskeCW+RDgC0ItRJtyfARToA0M6P1T8A7PAe4j/v/N8BANrxRJ1K3u787wAA7XiiTjUCHQAYwRN1AAAIJNQBACCQUAcAgEBCHQAAAgl1AAAIJNQBACCQUAcAgEBCHQAAAgl1AAAIJNQBACCQUAcAgEBCHQAAAgl1AAAIJNQBACCQUAcAgEBCHQAAAgl1AAAIJNQBACCQUAcAgEBCHQAAAgl1AAAIJNQBACCQUAcAgEBCHQAAAgl1AAAIJNQBACCQUAcAgEBCHQAAAgl1AAAIJNQBACCQUAcAgEBCHQAAAgl1AAAIJNQBACCQUAcAgEBCHQAAAgl1AAAIJNQBACCQUAcAgEBCHQAAAgl1AAAIJNQBACCQUAcAgEBCHQAAAgl1AAAIJNQBACCQUAcAgEBCHQAAAgl1AAAIJNQBACCQUAcAgEBCHQAAAgl1AAAIJNQBACCQUAcAgEBCHQAAAgl1AAAIJNQBACCQUAcAgEBCHQAAAgl1AAAIJNQBACCQUAcAgEBCHQAAAgl1AAAIJNQBACCQUAcAgEBCHQAAAgl1AAAIJNQBACCQUAcAgEBCHQAAAgl1AAAIJNQBACCQUAcAgEBCHQAAAgl1AAAIJNQBACCQUAcAgEBCHQAAAgl1AAAIJNQBACCQUAcAgEBCHQAAAgl1AAAIJNQBACCQUAcAgEBCHQAAAgl1AAAIJNQBACCQUAcAgEBCHQAAAgl1AAAIJNQBACCQUAcAgEBCHQAAAgl1AAAIJNQBACCQUAcAgEBCHQAAAgl1AAAIJNQBACCQUAcAgEBCHQAAAgl1AAAIJNQBACCQUAcAgEBCHQAAAgl1AAAIJNQBACCQUAcAgEBCHQAAAgl1AAAIJNQBACCQUAcAgEBCHQAAAgl1AAAIJNQBACCQUAcAgEBCHQAAAgl1AAAIJNQBACCQUAcAgEBCHQAAAgl1AAAIJNQBACCQUAcAgEBCHQAAAgl1AAAIJNQBACCQUAcAgEBCHQAAAgl1AAAIJNQBACCQUAcAgEBCHQAAAgl1AAAIJNQBACCQUAcAgEBCHQAAAgl1AAAIJNQBACCQUAcAgEBCHQAAAgl1AAAI9Pbz58/VP8MS//lf/z3zF9+2t9U/AJ9Mm8V7M3jm62Du2euIOTRvEOx///hfq3+E3X6s/gGAcVa8MXn0/6fQ6qPCvH1k9oB/CHWAz74LLTHFWcwe8A+hDvC4ezElovL8/Tep/lUzsweDCHWA49yKKAGV5dbfo3q8b5vZg5aEOsC5BFQ+8Q5EEuoA1/s7oMRTnm5fmXln9qAQoQ6wnnjKJ9yBywl1gDwf40k4Zfr4d+kS7dtm9iCKUAfI5olnvgnRvm1mDy4n1AFq8cQzW9evyGyb2YPLCXWAuoRTvve/S6dg3zazB5cQ6gA9CKdsXb8es21mD04j1AH6EU7ZJkS7uYMDCHWA3oRTtq7R7s0iHECoA8wgnPL5Pjvwh3+t/gEAuNzPrV8MdvK29Q1aswcP8EQdYC5POrN1/VrMtvlKFuwi1AHYNuGUztdiYCBffQHgI19NyOZrMTCIUAfgFtGUTbDDAEIdgK+IpmyCHRoT6gDsIZqyCXZoSKgD8AjRlE2wQyNCHYBniKZsgh0aEOoAvEI0ZRPsUJhQB+AIoimbYIeChDoARxJN2QQ7FCLUATiDaMrWNda3zezRiFAH4EyCKVfnp+vbZvZoQKgDcDZPOLN1DnazR2lCHYCriKZsXWN928weRQl1AK4mmHJ1frq+bWaPYoQ6ACt4wpmtc7CbPcoQ6gCsJJqydY31bTN3FCDUAUggmnJ5ug6LCHUAUoimbF1jfdvMHqGEOgBpBFOuzk/Xt83sEUaoA5DIE85s3WPd7BFBqAOQTDDl6hzr22b2CCDUAUjnCWcuX4WBEwl1AKoQTbm6x7rZYwmhDkAlgilX51jfNrPHAkIdgGo84cw14aswZo/LCHUAqhJMuTrH+raZPS4i1AGoTDDlEuvwIqEOQHW+jpBrwldh4DRCHYAuRFOu7rFu9jiFUAegE8GUq3Osb5vZ4wRCHYBuBFMusQ4PEOoAdOTrCLkmxLrZ4xBCHYDOBFOm7v+Q6baZPQ4g1AHoTjDlEuvwBaEOwASCKZdYhzuEOgBTCKZcYh1uEOoATOIf9Msl1uEvQh2AiURTpgmxbvbYTagDMJVgytQ91rfN7LGTUAdgMsGUSazDJtQBQDBlEuuMJ9QBQDCl8h9GYjShDgC/CKZcYp2Rfqz+AQBuOOpSdvnxqJ9b/yis6m3rfabNHp8IdeAqKy6gvf8/O1/+PE4w5RLrjCLUgaNVvGS++pk7RwH3CaZcYp0xhDrwigmXya3fsXMk8JtgyiXWGUGoA3u5NH77+7XoHAzTCSZWMXsIdeBLLol9hHtv739P5yFL96fq2ybWxxPqwEcuhGMI955EUx6xTmtCHXABnO/ja9w9KuBqYp22/AePYKa3D//Dtbz2tXUPwqomnCezN5BQhzkEYh5/k5oEU6YJ58jsDSPUoTchWIe/Uy2CKdOEM2T2BhHq0JPoq8ubqzoEU6YJZ8fsDSHUoReB14u/Zz7BlGnCuTF7Awh1qM8T2P78fbMJpkwTzozZa06oQ13ibR5vynIJpkwTzorZa0yoQz1CjW0zB4kEE6uYvaaEOtQhzLjFXGQRTHmmnA+z15BQh3xCjD3MSQ7BlGfK2TB7zQh1yCW8eIa5ySCY8kw5F2avEaEOeYQWRzBD6wmmPM4FpQh1yCHQOZqZgs8mnAlvEpsQ6rCemOJsZmwdwcQqZq8BoQ4wh2BfQzDlmXIOzF5xQh1gnimRkkQw5ZlyDsxeYUIdYCZP168nmPJMOQNmryihDjDblFBJIZiA3YQ6AJ6uM9mU2fcmsSChDsC7KcGymmDKM2X2zV4xQh2Ajzxdv4ZgyjNl7s1eIUIdgFumRMtKgolVzF4RQh2AezxdP59gymLeiSLUAfiOeGGSKfPuTWIBQh2APabEywqCKc+UeTd74YQ6AHv5Ksx5BBOrmL1gQh2AR4n1cwimLOac5YQ6AM8QMUwwZc69SQwl1AF41pSIuZJgYhWzF0ioA/AK31s/nmDKMmm+zV4YoQ7AESbFzBUEUxbzzRJCHSDHz612oIkZqK/yDmrnx+ofAKCpqZfd2zb3dz/az82bnySTZtvshRDqAK85+uLucDlOCpqzCaYsk2bb7AUQ6gD7nX1Bd7oU33+XKVEDcDjfUQe47eeN/zlTp0j/qOvvdSVvdrJMmmmzt5hQB/jlyij/W/eLv/vvdwXBlGXSTJu9hYQ6MNmqMP9oyoU/5fc8k2CCYYQ6ME1CnL+bFq/Tfl96mzTPCftyJKEOTJAU5+8mXfIfTf29j5I0w8yaZ7O3gFAHOkuL8237dbFPutxvmf77vyptpoGTCHWgm8Sn5+8E6m9eC7qYNMuJe7U1oQ50kRrn7yZd5nt5TZ6XPOv0ZvYuJNSB6tIDfdsE6Ve8NnRgjjmFUAcqSv56C48TOc8x/1kmzbHZu4hQByqpGOeTLu9XeJ2eU+080IfZu4BQByqoGOjbJj4f5fWiOjPMoYQ6kK5ioG+bC/tZXrfHVT0j1Gf2TibUgVRVn6Jvm9h8ldfvcVXPSkfml8MIdSBN5UDfNpf0UbyOUEPlfR1PqAMpqgf6tolL1qp+fjqZtgvM3kmEOpCgw5KfdjFfwWtKZeaXlwl1YKUOT9G3zYV8Jq/tYzqcJ2oyeycQ6sAqXZa6kDyf1/gxXc5WB2aXlwh14GpdnqJzLcED+ez2gwl14Erdlrh4vJbXe79uZ62yaXNr9g4k1IGrdFve0y7fFF53YAyhDpyt41ddxCIVdDt3lU3bGWbvIEIdOFPHZT3twk3kbwCMINSBs4h0zuRvsU/Hc1jVtJk1ewcQ6sDROn7VhUzTwudZziMUJdSBI3UOAlEIvGraHul8J1xCqANH6byQp12ulfjb7NP5fEJbQh04QucIEIL5/I2oZNq8dr4fTifUgVdZwiSYFj/PcFZZxew9SagDr+i+fMVfLf5eVGFW2UWoA88S6VBP93NLLrP3BKEOPKP7whXpdfnbUYVZ5VtCHXhU90inPgH0NWeYVczeg4Q68IgJS1bkAVexb/iSUAf2EulU4m/5tQnnmUxm7wFCHdjDYqUisU4F5pS7hDrwnSmR7rJkmilnmzxmbyehDnxlyjIV6X3521KBOeUmoQ7cMyXS6U8E3eecs4rZ20GoA7dMWqAiDoBIQh34m0inI3/r+yad+WRmlE+EOvCRC5vOhBBkced8Q6gDU4k2+E0wZbCX+INQB95NuqhdhnP520OWSXfPw4Q6sG0WJbOI9dvsgQzmk38IdWDa5ewSBMgy7R7aTajDbJYjU3nDBsQT6sAk4gy+5s17hom7yuzdINRhrmlLceLFx9fMBBBNqMNM0yId7hHrn9kPGSbOptn7i1AHJph44QFQnFCHeTyxgD95I/eZPQEBhDrMMvHyFWFAVRP318R76i6hDnNYfnDfxCACwgl1oDPxBc/z5j7DxD1m9v6HUIcZLD343sQgAoIJdaAr0QWv8yYfFhLq0N/Ei1ak8yyzQ6KJcznx7vpEqENvFh0AFCXUgW4mPnniWGboT97ws8r42RPq0Nf4BQfQiDeQAwl1oBMXGUcxS3/yxh8WEOrQk0sVoJ+JbyBH32dCHfqZutQmXmCcy0wBSwl1AGCPqQ8BYBmhDr1MvUg9+eQsZos0E2dy6t0m1AEAIJFQhz7GPnGAk018gnmPPcMqI2dPqAPViShgGntvCKEOPYx80gAXEkbA5YQ6UJl4gut5MMAq42ZPqEN94xYXLOKNIUnM4wBCHajKJQVAa0IdavM0Ha7lDeIvdg+rjJo9oQ5UJJYA7ML2hDrUNeqpAgBMI9QB4DGeYv7iYQGrjJk9oQ41jVlSN4gkAEYQ6gDwOG8YSWEWGxPqQCUuJMgy+dM91hoxe0Id6hmxnABgOqEOAM/xCQ8pzGJTQh1qmfw03UUEmSbvJTiVUAeA53kDCeu0f5Mo1IEKxBAA4wh1qKP9kwOgLPtpPQ80GhLqAPAagQTrtH6TKNShhtaL6BsiCICRhDoAQA8ebDQj1AHgdQJp9id/cAqhDvkmX37iB4DvtL0nhToAAAQS6gBwDJ8AkcAcNiLUIVvbj/N2cNlAPZN3Fmu1nD2hDgAAgYQ6ABzHJ0HAYYQ65Gr5Md5OYgfqmry74FBCHQCgl6kPO9q9SRTqAHCsqZEEHEyoQ6Z2TwUeIHIAYBPqAAAQSagDwPGmfzI0+VPBFFNnsNXsCXUAAAgk1CFPq6cBD5r6BAgAPhHqAAAQSKgDwDmmf0I0+dPBFNNnsDyhDlkmX2wuFACO0OYuFeoAABBIqAPAeXxSBDxNqAMAQCChDjnafKfuCZ46Qk+T91oK+7UwoQ4AQDct3iQKdQA4lyeawFOEOgAABBLqkKHFR3RP8rQRAG4Q6gDAmSY/iICXCHUAgN6mfnJZ/k2iUAeA800NJeAFQh1YSbwAwB1CHdYr/9EcAHA8oQ4AnM0DCXiCUAeAa/iqF/AQoQ4A0N/UN4qlP80R6sAqUy8NANhFqAMAQCChDmuV/kgOADiPUAeA6/jKF7CbUAcAruATRHiQUAdW8FQR4HpTd2/ZN4lCHQAAAgl1AAAIJNRhnbIfxQEA5xPqAHCtqd8TBh4k1AEAIJBQBwCu4it/8AChDlzNx/4AsINQBwCYY+rDkpKf5gh1AAAIJNRhjZLv7AGA6wh1ALje1K8fAA8Q6gAAEEioAwBAIKEOXMnH/QCwk1AHAK7kH6aHnYQ6AAAEEuoAABBIqAMAzDL1nxcq97UroQ4Aa0yNJWAnoQ7XK/eOHgC4nlAHAIBAQh0AAAIJdeAqvo8LAA8Q6gAAEEioAwBAIKEOAACBhDoAAAQS6gAAEEioAwBX8x9+gx2EOgAABBLqALCO/74AcJdQBwCAQEIdAIApSv3zEUIdAGAeX7sqQKgDAEAgoQ4AAIGEOgAABBLqcK1S/xALALCOUAcAgEBCHQAAAgl1AAAIJNSBK/j39QLAg4Q6AAAEEuoAABBIqAMAQCChDgAAgYQ6AAAEEuoAABBIqAMAQCChDgAAgYQ6AAAEEurAFX6u/gEAoBqhDgAAgYQ6XOtt9Q8AANQg1AEAIJBQBwCAQEIdAAACCXUAAAgk1AEAIJBQBwCYx3/fogChDgDAFKX+NclCHQDW8VQTuEuoAwBAIKEOAACBhDoAcLVS3xOGVYQ6AAAEEuoAABBIqAMAQCChPo9/FRgAQAFCHa7nH6ICAL41OdTFElzLpzkA8IDJoQ4AALGEOgAABBLqAAAQSKgDwBr+uQ3gS0IdAGCWqW8Sy/2LRIQ6AAAEEuoAwJXKPdWEVYT6TFM/8kriogIAviTUgSt5kwgAOwl1AAAIND3Uff0AAIBI00MdAFbwNTDgW0IdAAACCXVYx1evALiaT3MKEeoAAHRX8uGYUJ/LO2pWMXsAsINQBwCuUvKpJqwi1AEAIJBQ9+4egGv5+hewi1CHtbxRBABuEuoAABBIqM/m41dWMXsA15u6e8t+ei3UAQAgkFAHgOtMfaK5bYWfasIqQh3Wc3kBAJ8I9V+EEgAAUYQ6AAAEEupM/r4ka5k9APiCUIcMvn4F/XlzykpT56/0/SrUAYCzlY4lWEWoAwBAIKH+m3f7cL2pH8UCwLeEOtsmllJ4swgA/EOoA8D5PBABHibUAQB6m/pGsfwn1UIdADhT+ViCVYT6nywTVps4g1Of9ADAl4Q678QSwDnsV+ApQh0AAAIJdQCAvqZ+otPiq6RCHfK0WC4PmnqRQHcT9xkcRqh/NnmpiCWAY9mrwNOEOgAABBLqkGnyJzsAwCbUgRy+IgBwrKl7tc3DLqHO36YeaoCjTd+nbWIJVhHqt1kuJDCHADCYUAeSTH8CCQD/EOrcIpYAgIpafRot1CFbq4UDg0x/4GF3rTd9BlsQ6vdZMgAALCPUgTSeAgHAJtS5Tyzl8OkO1GJ/whrt7kuhDgAcqV0sFeTNYhNC/WuWDSmmzaJLBoDxhDpfEUsAj7E3gcMIdQAAqmv5ybNQhzpaLqEveDIJ9UzbU4nszkaE+vemLx0HHmAf+xI4lFCHWqa/cQSAMYQ6kMwTSgC+0/YhllBnD7EE8DV7snEsFWIOmxHq+1g+JDGPADCAUAfSeUIEwEhCnb3EUhZP1SGH/WgnsU7r2RPq+7UeBAgnhAC+Zk82JNShLm8eYT1xBJxGqPMIFxIAkKL9AyuhDrW1X1IfeKMImSbtIbiUUH+MZSSWAN7Zh6Qwi00JdajPG0gAphlx9wl1oBJPjSDLiFiCVYT64ywlsZTIXMK17EFSmMXGhDpQjUsJYLYxD6eEOvQxZnHBYt4s/mLnwMmE+nMsJxcVa5k/ALuwPaEOvXgTCecSRrDWqHtOqPMKFxbATKNiCVYR6s+zpEg1ZTa9UQQmswMHEOq8yqIAprDvYK0pD6L+IdShpynLTDjB9absF1hOqL/GsgKYwZtC4HJCnSO4wDJNeSNp/oBpJu69KXfaH4Q69DZyscHBJkbRPXYKXEiov87S+sVFxkrmD4B2hDr0580kPM+bQNJMnMmx95hQP8bYAfrLxOVBDvMH53LXwcWEOszggoXHefNHGjM5jFDnaJZIrgmxbv7gHBP2B5lGz55QP87oQQJoxps+YDmhzhlccLkmvKE0f0BHE3fbhDvrS0Id5hm/+OAbE4PoK3YGLCLUj2WZ/eaiYyXzB0B5Qh1m8qYSbvMm7092RYaJc2n2NqF+BoP128TFUkn3WTV/AJQm1AHgF2/uSDRxLrs/SNpNqHO2iQumku7L0PzB87rvB4gn1M9huVGJeQVv6oBAQp0ruABZyfzB47yBzzBxf5m9D4T6eQzanyYum0rMK5PZT0AkoQ686xzrQox7zAbk6HwPPUWon8vA/cmFmK/zzJo/2KfzHqjEzkKoAzCWEAKiCXWu5mLM1/lpmvmDr3U+/5VM3FVm7wahfj6DR0Xmlu4mhhBQjFBnBRdkDV1j3fxhBm7reuarmTifZu8OoX4NA/jZxEVUUdfZNX8AxBPqwHe6xjozeZN2m3POKmbvC0L9OgbxMxcmK5k/II29xB+EOrBH1zeaLsVZ/L0hS9e75TBC/VoG8jMXZx3ml8rsmvuc7QxmlE+EOgkspzo6XujmD+B6He+Twwn16xlMqjPDVOPN2H3OcwYzyk1CnRSWVC3dLnfz15e/LeTpdoecRqivYUBvc6HW0m2OzR/TdDvDVdk93CXUgVd0u+hdmL34e0KebvfGqYT6Ogb1NhdrPWaZRHbJ15xbKECok8gFW0+nS9/81edvSBXTZrXTXXEJob6Wgb1v2vLqoNM8mz8663RWoTWhDhxJALCaN1lUMW1W3Q9PEOrrGdz7pi2xLrrMtPmrx9/se13OJ4wg1Enn4q2pSwyYP+AM03ZLlzvhckI9gwGmoy5zPe1Crcrf6XtdziSMIdSpwAVc19smDjifHUEl0+bVHfACoZ7DIH9t2mLrpvp8m79c/jb7VD+DMJJQpxIXcm3VQ8H8UVX1s9fJtD1i9l4k1LMYaLqrPuPTLtl0/h5Aa0KdalzM9VWPdTLYBfs4bzmmzazZO4BQz2Owvzdt2XVU+R8yNX/r+RsAIwh1qnJR9yDWeZTXfr+q56ujaXNr9g4i1DMZ8H2mLb6uqs67+bue1xzyVd3pkYR6LoO+j4u7h6pfhTF/pKp4nrqyJ3iaUAeSVIwLl/A1vM77VTxHXU2bW7N3MKGezcDvM20Rdlf16TrnccaBkYQ6XbjI+6kU6+bvPF7bx1Q6N91Nm12zdwKhns/g7zdtKU5Q6em6+Tue1xRqqLKnyxHqNTgA+7nYe6pyBszfcbyWj6tyTiYwvxxCqNORBdlTlafr5u91XsPHVTgb9GT2TiTU63AQHuOi76tCsJu/53ntqM4McxihTmeWZW/pwW7+uEryOaA3s3cyoV6LA/E4sdRf8rkwf4/xelHdpBlO3r1tCPV6HIzHTVqcUyU/XTd/+3idnpM69xOZYQ4n1IFOUoPdBf41r89zEmedGczeRYR6TQ7I44TALInBbgZv87rQwaQ5TtutrQn1uhyUx01apPzytmVFuxn8k9fjeSkzDZxIqDONMJgrJdjN4C9eh+clzDG/TZpls3cxoV6bA/OcSUuVzxKCffoMTv/96cMscyqhXt/q4Kjq52bBTrf6azFT52/q730UO59VzN4CQp3pRAPbti7aJ82fN8evE0pZJs2z2VtEqPfgAL1m0rLle1dH+4T5m/A7MsukmdYYCwn1Phyk10xauuz3tl0T7p3nr/PvdiU7HgYS6vCboOA7Z4Z7x/nr+DutINKzTJprs7eYUO/FgXrdpAXM644O907z1+l3gYk0RYAfq38ADve2uSBf9XOzoHjOV3Oz91x2mD876DjVZ6Ebs82lhDrc1iGWyDJlnoTMcabMTBWTZtvshfDVl54csGP418nBY5yX49jjrGL2ggj1vhy044gP+Jo3tXRnvllCqPcm1o9jScNtzsbx7O4sk2bc7IUR6rDfpGUNezgTxxNKWSbNuNkLJNT7c/CONWlpw1echePZ16xi9kIJ9RkcwGP5Pi6TmX+mMOcsJ9TnEOvHs8SZxsyfx47OMmnWzV4woQ6vmbTMmc2sn0cosYrZCyfUZ3Egz+GrAHRmvs9lL+eZMu9mrwChPo+DeZ4py505zDTTTJl5LVCEUJ/JAT2Pp490YI6vYRdnMfPEEepzuSDOZeFTldm9hh3MKmavkB+rfwBo7D14LEUqEOjXsRPyTJl/s1eMJ+qzObDXmHIBUJcZvY69m2fK/Ju9goQ6Du41fOeXROaS6abMv7u+KKHOtjnAV5pyKZDPLF7PrgUeItR55wK5jqeYrGT+1rBj80w5B2avMKHORw7ztQQTVzJv69iteaacBbNXnFCH9QQUZzNf6wilPFPOg9lrQKjzNwd7nSmXB9fxJnAt+zTPlPNg9poQ6tzigK8jrDiCOVrPHmUVs9eIUOceB30tocUzzA3cN+FsuLubEep8xYFfT3ixhznJYnfmmXA+zF1DQp3vOPgZhBi3mIs8dmYeZ4SyhDp7uHhyCDO2zRyksivzTDknZq+pH6t/AMp42+YsvAo+/i0s6DmcwVzOYZ4p58XsNSbUeYRYz/T+N7Gse3Lm8jl7rGL2mvPVFx5lKeTydYhe/D1rsBMzTTg7Zm8AT9ShH1+LqWtCXHTifGWacI7M3hBCnWf4Ckwdor0G56ke5ynThLNk9gYR6jxLrNcj2rM4P3U5P5kmnCmzN4xQ5xVivS7RvobzUp/zkmnC2TJ7Awl1XiXW6xPt53I++nA+Mk04Y2ZvKKHOEcR6H3//HV0Oj3MWenIWMk04b2ZvMKHOUcR6T8L9e+a+P3OfacLZM3vDCXWOJNb7mx7u5nueaTNexYSzaPYQ6hxOrM9y72/d4YIxx3SY444mnE2zx7ZtQp1ziHW++vsnXUDmlHuS5pTfJpxZs8c/hDpneV80E5YqjzETpBNKmSbsDrPHH/61+gegPUsHqMTOyiTSGUmocwXLB6jArsok0hlLqHMVSwhIZkdlEumMJtS5kmUEJLKbMol0xhPqXM1SApLYSZm6R/rbZvbYQaizguUErCaUck2IdNhFqLOKRQWsYv/kEunwgVBnJQsLuJq9k0ukw1+EOqv5+Bm4il2TS6TDDUKdFJYYcCY7JtPPTaTDXUKdJJYZcAa7JdOEQDd7vESok8ZSA44ilHJNiHR4mVAnkQUHvMoeySXSYSehTipPwoBn2R25RDo8QKiTztIDHmFn5Ooc6R4ucYofq38A2OFt673ggdeJpFzd97fZ4zSeqFOFpxXAPXZDLpEOLxDqVGMpAh/ZCblEOrzIV1+oyFdhAJGUq/t+NntcxhN1qvJVGJjL2c8l0uFAQp3qLE2YxZnP1TnSPRxiCV99oQNfhYH+RFKu7vvX7LGMJ+p04WkH9OVs5xLpcCJP1OnG03XoQyRl67xrzR4RhDodvS/YzpcIdCeUcnXfrWaPGEKdzjxdh3pEUrbOO9XsEUeo052n61CHUMrVfYeaPSIJdabwdB1yiaRsnXen2SOaUGcST9chj1DK1XlXmjtKEOpMJNhhPaGUrfN+NHuUIdSZzNdh4HoiKVvnnWj2KEeoM52n63AdoZSr+w40e5Qk1OEXwQ7nEUnZOu89s0dpQh3+5OswcByRlK3zrjN7tCDU4TNP1+F1QilX591m7mhFqMN9gh0eJ5Rydd5l5o6WhDp8T7DD94RSts77y+zRllCH/QQ7fCaSsnXeV2aP9oQ6PE6wg0hK13k/mT3GEOrwPMHORCIpW+d9ZPYYR6jD6wQ7E4ikbJ33j9ljLKEOxxHsdCSSsnXeN2aP8YQ6HE+w04FIytZ1v5g7+ECow3kEO9WIpGydd4nZgxuEOpzv4wXU+aKlLpGUrfPeMHvwBaEO1/KUnSQiKVvXPWHuYCehDmt4ys4qIilb531g9uBBQh3W85SdswmkfF3Pv9mDFwh1yOEpO0cTSdk6n3OzBwcQ6pBJtPMsgZSv65k2e3AwoQ75RDvfEUj5up5dswcnEupQi2jnnUDK1/WMmj24iFCHukT7PAIpX9ezaPZgAaEOPYj2vgRStq7nzdxBAKEO/fx9wXYNia4EUr6uZ8rsQRihDv152p5NHOXrem7MHoQT6jDLrYu5a4SkEkf5Op4JcwcFCXXAV2XOI47ydZ13swcNCHXgb/cu+K5BcxRhlK/jDJs7aEyoA3sJeFFUUZf5NHswkFAHXrUnIKrEkhjq522rMX9mD/hEqANXeDVC9oaW2OGWV+Ziz+yZO+AUbz9/VnjQAAAAs/xr9Q8AAAB8JtQBACCQUAcAgEBCHQAAAgl1AAAIJNQBACCQUAcAgEBCHQAAAgl1AAAIJNQBACCQUAcAgEBCHQAAAgl1AAAIJNQBACCQUAcAgEBCHQAAAgl1AAAIJNQBACCQUAcAgEBCHQAAAgl1AAAIJNQBACCQUAcAgEBCHQAAAv1/xrAu7tLkQUIAAAAASUVORK5CYII=;" vertex="1" parent="1">
                    <mxGeometry x="90" y="180" width="23.31" height="30" as="geometry"/>
                </mxCell>
                <mxCell id="5" value="Home" style="text;html=1;strokeColor=none;fillColor=none;align=center;verticalAlign=middle;whiteSpace=wrap;rounded=0;fontStyle=4" vertex="1" parent="1">
                    <mxGeometry x="113.31" y="180" width="46.69" height="30" as="geometry"/>
                </mxCell>
                <mxCell id="6" value="Gute Nacht Geschichten" style="text;html=1;strokeColor=none;fillColor=none;align=center;verticalAlign=middle;whiteSpace=wrap;rounded=0;fontStyle=4" vertex="1" parent="1">
                    <mxGeometry x="173.31" y="180" width="146.69" height="30" as="geometry"/>
                </mxCell>
                <mxCell id="7" value="Blog" style="text;html=1;strokeColor=none;fillColor=none;align=center;verticalAlign=middle;whiteSpace=wrap;rounded=0;fontStyle=4" vertex="1" parent="1">
                    <mxGeometry x="330" y="180" width="40" height="30" as="geometry"/>
                </mxCell>
                <mxCell id="8" value="Hilfe" style="text;html=1;strokeColor=none;fillColor=none;align=center;verticalAlign=middle;whiteSpace=wrap;rounded=0;fontStyle=4" vertex="1" parent="1">
                    <mxGeometry x="380" y="180" width="40" height="30" as="geometry"/>
                </mxCell>
                <mxCell id="9" value="Bücher" style="text;html=1;strokeColor=none;fillColor=none;align=center;verticalAlign=middle;whiteSpace=wrap;rounded=0;fontStyle=4" vertex="1" parent="1">
                    <mxGeometry x="430" y="180" width="40" height="30" as="geometry"/>
                </mxCell>
                <mxCell id="10" value="Anmelden" style="text;html=1;strokeColor=#6c8ebf;fillColor=#dae8fc;align=center;verticalAlign=middle;whiteSpace=wrap;rounded=0;" vertex="1" parent="1">
                    <mxGeometry x="670" y="180" width="60" height="30" as="geometry"/>
                </mxCell>
                <mxCell id="11" value="Registierung" style="text;html=1;strokeColor=none;fillColor=none;align=center;verticalAlign=middle;whiteSpace=wrap;rounded=0;" vertex="1" parent="1">
                    <mxGeometry x="570" y="180" width="70" height="30" as="geometry"/>
                </mxCell>
            </root>
        </mxGraphModel>
    </diagram>
</mxfile>